<svg width="46" height="46" viewBox="0 0 46 46" fill="none" xmlns="http://www.w3.org/2000/svg">
<g clip-path="url(#clip0_174_66)">
<path d="M44.5 23C44.5 34.8741 34.8741 44.5 23 44.5C11.1259 44.5 1.5 34.8741 1.5 23C1.5 11.1259 11.1259 1.5 23 1.5C34.8741 1.5 44.5 11.1259 44.5 23Z" stroke="black" stroke-width="3"/>
<path d="M18.1076 15C18.8263 15 19.4822 15.0678 20.0755 15.202C20.6688 15.3361 21.1755 15.5564 21.5981 15.8629C22.0208 16.1694 22.3487 16.5761 22.5821 17.0846C22.8154 17.593 22.9314 18.2201 22.9314 18.9672C22.9314 19.7736 22.7581 20.4458 22.4127 20.9839C22.0674 21.522 21.5555 21.9627 20.8795 22.3058C21.8101 22.5897 22.5047 23.0868 22.9634 23.7958C23.422 24.5048 23.6513 25.3607 23.6513 26.362C23.6513 27.1684 23.5034 27.8675 23.2074 28.4578C22.9114 29.0482 22.5127 29.5298 22.0114 29.9026C21.5101 30.2769 20.9395 30.5523 20.2982 30.7316C19.6529 30.911 18.9876 31.0014 18.321 31H11V15H18.1076ZM17.685 21.4754C18.277 21.4754 18.7636 21.3257 19.1449 21.0277C19.5262 20.7283 19.7169 20.2439 19.7156 19.5716C19.7156 19.1988 19.6516 18.8923 19.5249 18.6536C19.3982 18.4149 19.2289 18.2271 19.0169 18.0929C18.8049 17.9588 18.5623 17.8656 18.2876 17.8133C18.005 17.7611 17.7183 17.7342 17.4303 17.7356H14.3225V21.4782L17.685 21.4754ZM17.8756 28.2644C18.189 28.2658 18.5009 28.2319 18.8063 28.1641C19.1023 28.0963 19.3636 27.9847 19.5889 27.828C19.8142 27.6712 19.9942 27.4579 20.1289 27.1896C20.2622 26.9213 20.3302 26.5766 20.3302 26.1586C20.3302 25.3381 20.1115 24.7505 19.6742 24.4003C19.2369 24.0486 18.6583 23.8735 17.9396 23.8735H14.3225V28.2658L17.8756 28.2644ZM27.8298 27.9282C28.2804 28.3915 28.9297 28.6231 29.7764 28.6231C30.383 28.6231 30.9043 28.4621 31.3416 28.1415C31.7789 27.8209 32.0469 27.4805 32.1456 27.1218H34.7894C34.3668 28.5115 33.7175 29.5044 32.8429 30.1018C31.9683 30.6992 30.911 30.9986 29.6697 30.9986C28.8098 30.9986 28.0338 30.8531 27.3432 30.5622C26.6525 30.2712 26.0672 29.856 25.5872 29.3179C25.1073 28.7798 24.7366 28.1387 24.4766 27.3915C24.2167 26.6444 24.086 25.8225 24.086 24.9271C24.086 24.0613 24.2193 23.2549 24.4873 22.5078C24.7553 21.7607 25.1366 21.1153 25.6299 20.5701C26.1232 20.025 26.7125 19.5956 27.3965 19.2821C28.0805 18.9686 28.8391 18.8118 29.671 18.8118C30.6017 18.8118 31.4123 19.0025 32.1042 19.3838C32.7949 19.7651 33.3629 20.2764 33.8068 20.919C34.2508 21.5616 34.5721 22.2931 34.7694 23.1151C34.9668 23.9371 35.0374 24.7957 34.9814 25.6925H27.0912C27.1325 26.7193 27.3792 27.4664 27.8298 27.9282ZM31.2256 21.8341C30.8656 21.4161 30.319 21.2071 29.5857 21.2071C29.1057 21.2071 28.7071 21.2932 28.3911 21.4641C28.0738 21.6364 27.8205 21.8483 27.6298 22.1025C27.4392 22.3567 27.3058 22.625 27.2285 22.9089C27.1512 23.1928 27.1045 23.447 27.0912 23.6701H31.9776C31.8349 22.8651 31.5843 22.2522 31.2256 21.8341ZM26.5765 15.8121H32.6816V17.6057H26.5765V15.8121Z" fill="#000615"/>
</g>
<defs>
<clipPath id="clip0_174_66">
<rect width="46" height="46" fill="white"/>
</clipPath>
</defs>
</svg>
