<svg width="41" height="41" viewBox="0 0 41 41" fill="none" xmlns="http://www.w3.org/2000/svg">
<path d="M20.1667 0C14.6898 0 14.003 0.023235 11.852 0.121338C9.70545 0.219262 8.23949 0.560222 6.9567 1.05866C5.63056 1.57404 4.50591 2.26364 3.38481 3.38475C2.26364 4.50585 1.57404 5.63062 1.05872 6.95676C0.560162 8.23949 0.219322 9.70545 0.121278 11.852C0.023175 14.003 0 14.6898 0 20.1667C0 25.6436 0.023175 26.3304 0.121278 28.4814C0.219322 30.6279 0.560162 32.0939 1.05872 33.3766C1.5741 34.7027 2.2637 35.8274 3.38481 36.9486C4.50597 38.0697 5.63056 38.7593 6.9567 39.2747C8.23949 39.7731 9.70545 40.114 11.852 40.212C14.003 40.3101 14.6898 40.3334 20.1667 40.3334C25.6436 40.3334 26.3304 40.3101 28.4814 40.212C30.6279 40.1141 32.0939 39.7731 33.3766 39.2747C34.7027 38.7593 35.8274 38.0697 36.9486 36.9486C38.0697 35.8274 38.7593 34.7027 39.2747 33.3766C39.7731 32.0939 40.1141 30.6279 40.212 28.4814C40.3101 26.3304 40.3334 25.6436 40.3334 20.1667C40.3334 14.6898 40.3101 14.003 40.212 11.852C40.1141 9.70545 39.7731 8.23949 39.2747 6.95676C38.7593 5.63062 38.0697 4.50585 36.9486 3.38475C35.8274 2.26364 34.7027 1.57404 33.3766 1.05866C32.0939 0.560222 30.6279 0.219262 28.4814 0.121338C26.3304 0.023235 25.6436 0 20.1667 0ZM20.1667 3.63361C25.5514 3.63361 26.1892 3.6542 28.3157 3.75123C30.282 3.84086 31.3498 4.1694 32.0604 4.44557C33.0018 4.81145 33.6735 5.24841 34.3792 5.95411C35.0849 6.65981 35.5219 7.33164 35.8878 8.27293C36.164 8.98355 36.4925 10.0514 36.5821 12.0176C36.6791 14.1441 36.6997 14.782 36.6997 20.1667C36.6997 25.5514 36.6791 26.1892 36.5821 28.3157C36.4925 30.282 36.164 31.3498 35.8878 32.0604C35.5219 33.0018 35.0849 33.6736 34.3792 34.3792C33.6735 35.0849 33.0017 35.5219 32.0604 35.8878C31.3498 36.164 30.282 36.4925 28.3157 36.5821C26.1896 36.6792 25.5518 36.6997 20.1667 36.6997C14.7816 36.6997 14.1439 36.6792 12.0176 36.5821C10.0513 36.4925 8.98355 36.164 8.27299 35.8878C7.33158 35.5219 6.65981 35.0849 5.95417 34.3792C5.24847 33.6736 4.81145 33.0017 4.44557 32.0604C4.1694 31.3498 3.84092 30.282 3.75122 28.3157C3.6542 26.1892 3.63361 25.5514 3.63361 20.1667C3.63361 14.782 3.6542 14.1441 3.75122 12.0176C3.84092 10.0513 4.1694 8.98355 4.44557 8.27299C4.81145 7.33158 5.24847 6.65981 5.95411 5.95417C6.65981 5.24841 7.33164 4.81145 8.27293 4.44557C8.98355 4.1694 10.0514 3.84086 12.0176 3.75123C14.1441 3.6542 14.782 3.63361 20.1667 3.63361" fill="#100F0D"/>
<path d="M20.1665 26.889C16.4538 26.889 13.4442 23.8794 13.4442 20.1668C13.4442 16.4541 16.4538 13.4445 20.1665 13.4445C23.879 13.4445 26.8886 16.4541 26.8886 20.1668C26.8886 23.8794 23.879 26.889 20.1665 26.889ZM20.1665 9.8109C14.447 9.8109 9.81055 14.4473 9.81055 20.1668C9.81055 25.8862 14.447 30.5226 20.1665 30.5226C25.8858 30.5226 30.5223 25.8862 30.5223 20.1668C30.5223 14.4473 25.8858 9.8109 20.1665 9.8109ZM33.3515 9.40173C33.3515 10.7383 32.2679 11.8217 30.9314 11.8217C29.595 11.8217 28.5114 10.7383 28.5114 9.40173C28.5114 8.06521 29.595 6.98169 30.9314 6.98169C32.2679 6.98169 33.3515 8.06521 33.3515 9.40173Z" fill="#100F0D"/>
</svg>
